<svg xmlns="http://www.w3.org/2000/svg" viewBox="0 0 64 64" role="img" aria-label="kfactory">
  <title>kfactory</title>
  <polygon points="16.498,32.09 11.502,31.91 11.525,31.318 11.597,30.639 11.716,29.965 11.879,29.296 12.084,28.635 12.33,27.981 12.614,27.335 12.936,26.698 13.293,26.069 13.686,25.448 14.112,24.835 14.571,24.23 15.062,23.633 15.585,23.044 16.139,22.463 16.724,21.89 17.339,21.325 17.984,20.768 18.659,20.219 19.362,19.678 20.095,19.146 20.856,18.624 21.646,18.11 22.464,17.606 23.309,17.112 24.182,16.629 25.083,16.156 26.01,15.694 26.964,15.243 27.944,14.805 28.951,14.379 29.983,13.966 31.041,13.567 32.124,13.181 33.232,12.809 34.365,12.452 35.522,12.111 36.703,11.785 37.908,11.476 39.137,11.183 40.388,10.908 41.663,10.651 42.96,10.412 44.28,10.192 45.621,9.991 46.984,9.81 48.368,9.65 49.753,9.512 50.247,14.488 48.903,14.621 47.6,14.772 46.319,14.942 45.061,15.13 43.824,15.336 42.611,15.56 41.42,15.801 40.252,16.057 39.109,16.33 37.989,16.617 36.893,16.919 35.823,17.235 34.777,17.564 33.757,17.906 32.763,18.261 31.795,18.626 30.853,19.003 29.939,19.39 29.051,19.787 28.191,20.193 27.36,20.607 26.556,21.029 25.782,21.458 25.036,21.894 24.32,22.335 23.634,22.781 22.978,23.231 22.353,23.685 21.759,24.142 21.196,24.6 20.664,25.059 20.165,25.517 19.698,25.975 19.263,26.431 18.861,26.884 18.492,27.332 18.155,27.775 17.852,28.212 17.581,28.641 17.342,29.061 17.135,29.472 16.959,29.871 16.814,30.258 16.697,30.632 16.609,30.993 16.548,31.341 16.512,31.676" fill="#14B8A6" data-layer="WG"/>
  <polygon points="49.753,54.488 48.368,54.35 46.984,54.19 45.621,54.009 44.28,53.808 42.96,53.588 41.663,53.349 40.388,53.092 39.137,52.817 37.908,52.524 36.703,52.215 35.522,51.889 34.365,51.548 33.232,51.191 32.124,50.819 31.041,50.433 29.983,50.034 28.951,49.621 27.944,49.195 26.964,48.757 26.01,48.306 25.083,47.844 24.182,47.371 23.309,46.888 22.464,46.394 21.646,45.89 20.856,45.376 20.095,44.854 19.362,44.322 18.659,43.781 17.984,43.232 17.339,42.675 16.724,42.11 16.139,41.537 15.585,40.956 15.062,40.367 14.571,39.77 14.112,39.165 13.686,38.552 13.293,37.931 12.936,37.302 12.614,36.665 12.33,36.019 12.084,35.365 11.879,34.704 11.716,34.035 11.597,33.361 11.525,32.682 11.502,32.09 16.498,31.91 16.512,32.324 16.548,32.659 16.609,33.007 16.697,33.368 16.814,33.742 16.959,34.129 17.135,34.528 17.342,34.939 17.581,35.359 17.852,35.788 18.155,36.225 18.492,36.668 18.861,37.116 19.263,37.569 19.698,38.025 20.165,38.483 20.664,38.941 21.196,39.4 21.759,39.858 22.353,40.315 22.978,40.769 23.634,41.219 24.32,41.665 25.036,42.106 25.782,42.542 26.556,42.971 27.36,43.393 28.191,43.807 29.051,44.213 29.939,44.61 30.853,44.997 31.795,45.374 32.763,45.739 33.757,46.094 34.777,46.436 35.823,46.765 36.893,47.081 37.989,47.383 39.109,47.67 40.252,47.943 41.42,48.199 42.611,48.44 43.824,48.664 45.061,48.87 46.319,49.058 47.6,49.228 48.903,49.379 50.247,49.512" fill="#14B8A6" data-layer="WG"/>
  <polygon points="11.5,56 11.5,8 16.5,8 16.5,56" fill="#14B8A6" data-layer="WG"/>
  <polygon points="11,8 11,2 17,2 17,8" fill="#0F766E" data-layer="STUB"/>
  <polygon points="11,62 11,56 17,56 17,62" fill="#0F766E" data-layer="STUB"/>
  <polygon points="47,12 47,6 53,6 53,12" fill="#0F766E" data-layer="STUB"/>
  <polygon points="47,58 47,52 53,52 53,58" fill="#0F766E" data-layer="STUB"/>
</svg>
